<?xml version="1.0" standalone="no"?>
<!DOCTYPE svg PUBLIC "-//W3C//DTD SVG 20010904//EN" "http://www.w3.org/TR/2001/REC-SVG-20010904/DTD/svg10.dtd">
<svg version="1.0" xmlns="http://www.w3.org/2000/svg" width="512.000000pt" height="512.000000pt" viewBox="0 0 512.000000 512.000000" preserveAspectRatio="xMidYMid meet">
    <g transform="translate(0.000000,512.000000) scale(0.100000,-0.100000)" fill="#000000" stroke="none">
        <path d="M885 5111 c-90 -22 -172 -90 -215 -176 l-25 -50 0 -2325 0 -2325 27 -51 c40 -76 70 -107 140 -145 l63 -34 1685 0 1685 0 63 34 c70 38 100 69 140 145 l27 51 3 1770 2 1770 -672 672 -673 673 -1110 -1 c-611 -1 -1123 -4 -1140 -8z m2105 -731 l5 -525 24 -45 c32 -61 86 -116 146 -148 l50 -27 525 -5 525 -5 3 -1658 c2 -1495 0 -1662 -14 -1692 -33 -70 93 -65 -1694 -65 -1787 0 -1661 -5 -1694 65 -14 30 -16 255 -16 2285 0 2026 2 2255 16 2285 32 68 -31 65 1099 62 l1020 -2 5 -525z m723 -538 c-219 -1 -412 0 -429 3 -17 3 -42 17 -55 31 l-24 26 -3 426 -2 427 455 -455 455 -455 -397 -3z" />
    </g>
</svg>
