<?xml version="1.0" standalone="no"?>
<!DOCTYPE svg PUBLIC "-//W3C//DTD SVG 20010904//EN" "http://www.w3.org/TR/2001/REC-SVG-20010904/DTD/svg10.dtd">
<svg version="1.0" xmlns="http://www.w3.org/2000/svg" width="512.000000pt" height="512.000000pt" viewBox="0 0 512.000000 512.000000" preserveAspectRatio="xMidYMid meet">
    <g transform="translate(0.000000,512.000000) scale(0.100000,-0.100000)" fill="#000000" stroke="none">
        <path d="M230 4536 c-93 -25 -173 -95 -206 -182 -18 -47 -19 -106 -19 -1794 l0 -1745 23 -47 c32 -65 94 -125 160 -156 l57 -27 1925 -3 c1059 -1 1939 0 1957 3 72 13 73 15 533 935 278 556 442 895 449 928 6 29 11 73 11 96 0 52 -32 159 -60 201 -39 58 -115 126 -174 155 -79 39 -163 49 -393 50 l-182 0 -3 388 c-3 383 -3 387 -26 432 -33 63 -96 125 -156 152 l-51 23 -975 3 -975 3 -181 252 c-129 179 -194 261 -226 284 -86 62 -94 63 -803 62 -472 0 -652 -4 -685 -13z m1485 -528 c94 -130 183 -251 200 -268 16 -17 54 -43 85 -58 l55 -27 978 -3 977 -2 0 -350 0 -350 -1347 0 c-812 0 -1375 -4 -1415 -10 -135 -20 -238 -80 -306 -180 -17 -25 -162 -326 -322 -670 -161 -343 -298 -636 -305 -650 -12 -21 -14 185 -15 1393 l0 1417 623 -2 622 -3 170 -237z m3011 -1369 c51 -13 94 -57 94 -97 0 -16 -173 -375 -407 -844 l-407 -818 -1808 0 c-994 0 -1808 2 -1808 4 0 17 796 1705 812 1723 11 12 36 26 57 31 54 15 3409 15 3467 1z" />
    </g>
</svg>
