<?xml version="1.0" standalone="no"?>
<!DOCTYPE svg PUBLIC "-//W3C//DTD SVG 20010904//EN" "http://www.w3.org/TR/2001/REC-SVG-20010904/DTD/svg10.dtd">
<svg version="1.0" xmlns="http://www.w3.org/2000/svg" width="512.000000pt" height="512.000000pt" viewBox="0 0 512.000000 512.000000" preserveAspectRatio="xMidYMid meet">
    <g transform="translate(0.000000,512.000000) scale(0.100000,-0.100000)" fill="#000000" stroke="none">
        <path d="M545 4720 c-200 -28 -385 -160 -474 -341 -75 -152 -71 -41 -71 -1819 0 -1779 -4 -1667 71 -1820 79 -158 243 -288 419 -332 45 -11 416 -13 2070 -13 1654 0 2025 2 2070 13 176 44 340 174 419 332 74 151 71 84 71 1425 0 1341 3 1273 -71 1425 -75 153 -221 273 -399 327 -49 15 -152 18 -955 23 -898 5 -900 5 -940 27 -24 12 -143 130 -293 290 -283 299 -338 350 -433 398 -137 70 -116 68 -804 71 -341 1 -647 -2 -680 -6z m1296 -401 c40 -18 94 -69 316 -303 290 -306 338 -350 428 -394 142 -71 74 -66 1075 -72 831 -5 908 -6 936 -22 46 -25 94 -77 115 -123 18 -38 19 -99 19 -1240 0 -1141 -1 -1202 -19 -1240 -22 -48 -70 -97 -120 -122 -34 -17 -131 -18 -2031 -18 -1900 0 -1997 1 -2031 18 -50 25 -98 74 -120 122 -18 38 -19 112 -19 1635 0 1553 1 1596 20 1635 10 22 25 47 32 55 22 26 81 67 113 78 20 7 240 11 633 11 593 1 604 1 653 -20z" />
    </g>
</svg>
